<svg xmlns="http://www.w3.org/2000/svg" fill="none" viewBox="0 0 644 710">
  <rect width="109" height="105" x="44" y="147" stroke="#F0F2F0" stroke-width="7" rx="52.5"/>
  <g>
    <rect width="340" height="400" x="6" y="184" fill="#528152" rx="4"/>
    <path fill="#F0F2F0" d="m45 356-1 3-5 2h-1v6h-2v-15h4c4 0 5 1 5 4Zm-7 3h1l4-1 1-2-1-2-3-1h-2v6Zm15 8-4-2-1-4 1-4 4-2 3 2 1 3v1h-7l1 3 2 1h4v1a9 9 0 0 1-4 1Zm0-10h-3v3h5v-3h-2Zm12-2h2l-1 2h-1l-2 1-1 3v6h-2v-12h2v2l1-1 2-1Zm11 8-1 3-3 1-4-1v-2a8 8 0 0 0 4 1h2v-2l-2-2-3-1-1-1v-1l1-2 3-1 4 1-1 1h-5v2h1l2 1 2 2 1 1Zm12-2-1 4-4 2-2-1-2-2-1-3 2-4 3-2 4 2 1 4Zm-8 0 1 3 2 1 3-1 1-3-1-3-3-1-2 1-1 3Zm19 6v-10h-2l-3 1-1 3v6h-2v-12h2v2l2-1 2-1 3 1 1 3v8h-2Zm12 0v-2l-2 1-2 1-3-1v-3c0-2 1-3 5-3h2v-1l-1-2h-5v-1a8 8 0 0 1 4-1l3 1 1 3v8h-2Zm-4-2 3-1 1-2v-1h-2l-3 1-1 1 1 2h1Zm11 2h-2v-16h2v16Zm5 0h-2v-12h2v12Zm-2-15 1-1h1v2h-1l-1-1Zm13 15h-8v-2l6-8h-6v-2h8v2l-6 8h6v2Zm7 0-4-2-1-4 1-4 4-2 3 2 1 3v1h-7l1 3 2 1h4v1a9 9 0 0 1-4 1Zm0-10h-2l-1 3h6l-1-3h-2Zm15 8-4 2-3-2-1-4 1-4 3-2 4 2v-6h2v16h-2v-2Zm-3 0 2-1 1-3-1-3-2-1-3 1-1 3 1 3 3 1Zm19 2-2-1-2-1v7h-1v-17h1v2a4 4 0 0 1 4-2l3 2 2 4-2 4-3 2Zm0-10-3 1-1 3 1 3 3 1 2-1 1-3-1-3-2-1Zm9 10h-2v-16h2v16Zm11 0-1-2-1 1-2 1-3-1-1-3c0-2 2-3 5-3h2v-3h-5l-1-1a8 8 0 0 1 4-1l3 1 1 3v8h-1Zm-4-2 2-1 1-2v-1h-1l-3 1-1 1v2h2Zm16 2v-10h-2l-3 1-1 3v6h-2v-12h2v2l2-1 2-1 3 1 1 3v8h-2Zm13 0v-8l-1-2h-1l-3 1-1 3v6h-2v-12h2v2l2-1 2-1 3 1 1 3v8h-2Zm7 0h-2v-12h2v12Zm-2-15v-1h2v2h-2v-1Zm13 15v-10h-2l-3 1-1 3v6h-1v-12h1v2l2-1 2-1 3 1 1 3v8h-2Zm15-12v1l-2 1a4 4 0 0 1 0 2l-1 3-3 1-1-1-1 2v1h4l3 1 1 2-2 3-4 1-4-1-1-3 1-1 2-1-1-1v-2l1-1-1-1-1-2 1-3 3-1h6Zm-9 13 1 2h5l1-2-1-1-2-1h-2l-2 1v1Zm1-9v2h2c2 0 3 0 3-2s-1-3-3-3l-2 1v2ZM43 405v-10h-2l-3 1-1 3v6h-1v-16h1v6l2-1 2-1 3 1 1 3v8h-2Zm10 0-4-2-1-4 1-4 4-2 3 2 1 3v1h-7l1 3 2 1h4v1a9 9 0 0 1-4 1Zm0-10h-2l-1 3h6l-1-3h-2Zm9 10h-2v-16h2v16Zm9 0-2-1-2-1v7h-1v-17h1v2a4 4 0 0 1 4-2l3 2 2 4-2 4-3 2Zm0-10-3 1-1 3 1 3 3 1 2-1 1-3-1-3-2-1Zm15 6-1 3-4 1-3-1v-2a8 8 0 0 0 3 1h2l1-1v-1l-3-2-2-1-1-1v-1l1-2 3-1 4 1-1 1h-5v2l2 1 3 2 1 1Zm6-8h2l3 7 1 3v-2l3-8h2l-5 13-2 3-2 1-2-1v-1h2c1 0 2 0 2-2l1-1-5-12Zm22 6-1 4-4 2-3-1-1-2-1-3 1-4 4-2 4 2 1 4Zm-8 0 1 3 2 1 3-1 1-3-1-3-3-1-2 1-1 3Zm13-6v8l1 2h2l2-1 1-3v-6h2v12h-2v-2l-2 1-2 1-3-1-1-3v-8h2Zm22 2h-3v10h-2v-10h-2v-1l2-1c0-3 1-5 4-5l2 1-1 1h-1l-2 1v2h3v2Zm4 10h-2v-12h2v12Zm-2-15v-1h1l1 1-1 1h-1v-1Zm13 15v-8l-1-2h-2l-2 1-1 3v6h-2v-12h2v2l1-1 2-1 4 1 1 3v8h-2Zm13-2-4 2-3-2-2-4 2-4 3-2 4 2v-6h1v16h-1v-2Zm-4 0 3-1 1-3-1-3-3-1-2 1-1 3 1 3 2 1Zm20 2-2-1-2-1v7h-2v-17h2v2a4 4 0 0 1 4-2l3 2 1 4-1 4-3 2Zm-1-10-2 1-1 3 1 3 2 1 3-1 1-3-1-3-3-1Zm13-2h2l-1 2h-1l-2 1-1 3v6h-2v-12h2v2l1-1 2-1Zm14 6-2 4-4 2-2-1-2-2-1-3 2-4 3-2 4 2 2 4Zm-9 0 1 3 2 1 3-1 1-3-1-3-3-1-2 1-1 3Zm10 11-1-1v-1h2l1-2v-13h1v13c0 2-1 4-3 4Zm1-20 1-1h1v2h-1l-1-1Zm11 15-4-2-2-4 2-4 3-2c2 0 3 1 3 2l2 3v1h-8l1 3 3 1h3v1a9 9 0 0 1-3 1Zm-1-10h-2l-1 3h6l-1-3h-2Zm12 10-4-2-1-4 1-4 4-2a8 8 0 0 1 3 1v1a8 8 0 0 0-3 0c-2 0-3 1-3 4l1 3 2 1h3v1l-3 1Zm9-2a6 6 0 0 0 2 0v1l-1 1h-1c-2 0-3-1-3-4v-6h-2v-1l2-1v-2h1v2h4v2h-4v6l1 2h1ZM45 431v1l-2 1a4 4 0 0 1 1 2l-2 3-3 1-1-1-1 2 1 1h3l3 1 1 2-2 3-4 1-3-1-2-3 1-1 2-1-1-1v-2l1-1-1-1-1-2 1-3 3-1h6Zm-9 13 1 2h5l1-2v-1l-3-1h-2l-1 1-1 1Zm1-9 1 2h1c2 0 3 0 3-2s-1-3-3-3l-1 1-1 2Zm20 2-1 4-4 2-3-1-2-2v-3l1-4 4-2 4 2 1 4Zm-9 0 1 3 3 1 2-1 1-3-1-3-2-1-3 1-1 3Zm19 6-1-2-1 1-2 1-3-1-1-3c0-2 2-3 6-3h1v-3h-5l-1-1a8 8 0 0 1 4-1l3 1 1 3v8h-1Zm-4-2 2-1 1-2v-1h-1l-3 1-1 1v2h2Zm10 2h-1v-16h1v16Zm11-4-1 3-3 1-4-1v-2a8 8 0 0 0 4 1h2l1-1-1-1-2-2-2-1-1-1-1-1 1-2 3-1 4 1-1 1h-5v2h1l2 1 2 2 1 1Zm15 4v-2l-2 1-2 1-2-1-1-3c0-2 1-3 5-3h2v-1l-1-2h-5v-1a8 8 0 0 1 4-1l3 1 1 3v8h-2Zm-4-2 3-1 1-2v-1h-2l-3 1-1 1 1 2h1Zm17 2v-8l-1-2h-2l-2 1-1 3v6h-2v-12h1l1 2 1-1 2-1 3 1 1 3v8h-1Zm13-2-4 2-3-2-2-4 2-4 3-2 4 2v-6h1v16h-1v-2Zm-4 0 3-1 1-3-1-3-3-1-2 1-1 3 1 3 2 1Zm19 2-4-2-1-4 1-4 4-2a8 8 0 0 1 3 1l-1 1a8 8 0 0 0-2 0c-2 0-4 1-4 4l1 3 3 1h3v1l-3 1Zm15-6-1 4-4 2-3-1-2-2v-3l1-4 4-2 4 2 1 4Zm-9 0 1 3 3 1 2-1 1-3-1-3-2-1-3 1-1 3Zm20 6v-8l-1-2h-2l-2 1-1 3v6h-2v-12h1l1 2 1-1 2-1 3 1 1 3v8h-1Zm12-4-1 3-3 1-4-1v-2a8 8 0 0 0 4 1h2l1-1-1-1-2-2-2-1-1-1-1-1 1-2 3-1 4 1-1 1h-5v2h1l2 1 2 2 1 1Zm7 2a6 6 0 0 0 1 0v1l-1 1h-1c-2 0-3-1-3-4v-6h-2v-1l2-1 1-2h1v2h3v2h-3v8h2Zm9-10h1v2h-2l-2 1-1 3v6h-2v-12h2v2l2-1 2-1Zm10 12v-2h-1l-1 1-2 1-3-1-1-3c0-2 2-3 6-3h1v-3h-5l-1-1a8 8 0 0 1 4-1l3 1 1 3v8h-1Zm-4-2 3-1v-3h-1l-3 1-1 1v2h2Zm10 2h-1v-12h1v12Zm-2-15 1-1h1l1 1-1 1h-1l-1-1Zm14 15v-8l-1-2h-2l-3 1v9h-2v-12h1l1 2 1-1 2-1 3 1 1 3v8h-1Zm8-2a6 6 0 0 0 2 0v1l-1 1h-1c-2 0-3-1-3-4v-6h-2v-1l2-1 1-2h1v2h3v2h-3v8h1Zm12-2c0 2-1 2-2 3l-3 1-3-1v-2a8 8 0 0 0 3 1h2l1-1-1-1-2-2-2-1-1-1v-1l1-2 3-1 3 1v1h-5l-1 1v1h1l2 1 3 2 1 1Zm2 2v-1h2l1 1-1 1-1 1h-1v-2ZM42 309l-4-1c-2 0-3-1-4-3l3-1 2 2 3 1 3-1 1-2v-1l-2-1-4-1-4-1-1-3 1-3 2-2h4l4 1 3 2-2 2-2-2-3-1-3 1-1 2 1 1 2 1 4 1 3 1 1 3-2 4-5 1Zm13-20-1-1-1-1 1-2h3v3l-2 1Zm2 3v17h-3v-17h3Zm5 17v-2l9-11 2-2H62v-2h14v2l-9 11-2 2h11v2H62Zm26 0-4-1-3-3-1-4 1-5 3-3 4-1 4 1 3 2v4a15 15 0 0 1 0 2H83l1 4 4 2 3-1 2-2 2 2c-1 1-1 2-3 2l-4 1Zm0-15-4 1-1 4h10l-2-4-3-1Zm26-5-2-1v-3h3l1 2-1 1-1 1Zm1 3v17h-3v-17h3Zm16 0v2h-6v10l1 2 2 1a4 4 0 0 0 3-1l1 2-2 1h-5l-2-2v-13h-4v-2h4v-4l2-1v5h6Zm16 17v-17h2l1 3c1-2 2-3 5-3h2v2h-3l-2 1-1 2-1 3v9h-3Zm15-20-1-1-1-1 1-2h3v3l-2 1Zm2 3v17h-3v-17h3Zm15 15 4 1 1 3-1 3-3 2h-4l-6-1-2-3 1-2 2-2-1-1-1-2 1-2 1-1-2-2v-3l1-3 2-2h4l4 1 1-3 3-1 1 2-3 1-1 2 2 3-1 3-3 2-3 1h-3l-1 1v1c0 1 0 2 2 2h5Zm-3-13-3 1-1 2 1 3 3 1 3-1 1-3-1-2-3-1Zm0 20 4-1 2-2-1-1-3-1h-5l-2 1v1l1 2 4 1Zm12-5v-25h3v11l2-3h7l2 2 1 4v11h-3v-10l-1-4-3-1-2 1-2 2-1 3v9h-3Zm31-17v2h-6v10l1 2 1 1a4 4 0 0 0 3-1l1 2-1 1h-5l-2-2-1-2v-11h-3v-2h3v-4l3-1v5h6Z"/>
    <rect width="346" height="406" x="3" y="181" stroke="#F0F2F0" stroke-width="6" rx="7"/>
  </g>
  <rect width="95" height="95" x="51" y="150" fill="#F0F2F0" rx="47.5"/>
  <g fill="#528152" clip-path="url(#b)">
    <path d="M112 183v12h-4v-5l-6 7-3-3 7-7h-5v-4h11Zm-28 30h11v-4h-5l7-7-3-3-6 7v-5h-4v12Z"/>
    <path d="M69 182v-8h58v47H69v-39Zm5-3v37h49v-37H74Z"/>
  </g>
  <rect width="95" height="95" x="51" y="150" stroke="#528152" stroke-width="7" rx="47.5"/>
  <rect width="109" height="105" x="324" y="4" stroke="#F0F2F0" stroke-width="7" rx="52.5"/>
  <g>
    <rect width="340" height="400" x="276" y="41" fill="#528152" rx="4"/>
    <path fill="#F0F2F0" d="M333 223h-2l-3-10a32 32 0 0 1 0-3l-1 3-3 10h-2l-4-15h2l2 10 1 3 1-4 3-9h2l2 10 1 3 1-3 2-10h2l-4 15Zm16-5-1 4-4 2-3-1-2-2v-3l1-5 4-1 4 1 1 5Zm-9 0 1 3 3 1 2-1 1-3-1-4-2-1-3 1-1 4Zm17-6h1v2l-1-1-2 2-1 2v6h-2v-11h1l1 2 1-1 2-1Zm5 6 2-2 3-4h2l-4 5 5 6h-3l-4-5-1 1v4h-1v-16h1v11Zm24 5-2-6-1-3v3l-3 6h-2l-3-11h2a3332 3332 0 0 1 3 10 24 24 0 0 1 0-3l2-7h2l2 7 1 3v-2l3-8h1l-3 11h-2Zm9 0h-2v-11h2v11Zm-2-14v-1h2v2h-2v-1Zm9 13a6 6 0 0 0 2 0v1h-1l-1 1c-2 0-3-2-3-4v-7h-2l2-1v-2h1v2h4v1h-4v7l1 2h1Zm12 1v-7l-1-2-2-1-2 1-1 3v6h-2v-16h2v7l1-2h2l3 1 1 3v7h-1Zm16 1-2-1-2-1v6h-2v-16h2v2a4 4 0 0 1 4-2l3 1 1 5-1 4-3 2Zm-1-11-2 1-1 3v1l1 3 2 1 3-1 1-3-1-4-3-1Zm13-1h2v2l-2-1-2 2-1 2v6h-2v-11h2v2l2-1 1-1Zm14 6-2 4-4 2-2-1-2-2-1-3 2-5 3-1 4 1 2 5Zm-9 0 1 3 2 1 3-1 1-3-1-4-3-1-2 1-1 4Zm17-5h-3v10h-2v-10h-2l2-1v-1c0-2 1-4 4-4l2 1-1 1h-3v3h3v1Zm6 11-3-2-2-4 1-4c1-2 3-2 4-2l3 1 2 4v1h-8l1 3 3 1 3-1v2a9 9 0 0 1-4 1Zm0-11-2 1-1 3h6l-1-3-2-1Zm15 7-1 3-4 1-3-1v-2a9 9 0 0 0 3 1h2l1-2v-1l-3-1-2-1-1-1v-1l1-2 3-1 4 1-1 1-3-1-2 1-1 1 1 1 2 1 3 1 1 2Zm10 0-1 3-4 1-3-1v-2a9 9 0 0 0 3 1h2l1-2v-1l-3-1-2-1-1-1v-1l1-2 3-1 4 1-1 1-3-1-2 1-1 1 1 1 2 1 3 1 1 2Zm4 3h-1v-11h1v11Zm-2-14 1-1h1v2h-1l-1-1Zm16 9-2 4-4 2-2-1-2-2-1-3 2-5 3-1 4 1 2 5Zm-9 0 1 3 2 1 3-1 1-3-1-4-3-1-2 1-1 4Zm19 5v-9l-2-1-3 1-1 3v6h-1v-11h1v2l2-2h2l3 1 1 3v7h-2Zm12 0v-1l-2 1-2 1-2-1-1-3c0-2 1-3 5-3h2v-1l-1-2-1-1-4 1v-1a8 8 0 0 1 4-1l3 1 1 3v7h-2Zm-3-1 2-1 1-2v-1h-2l-3 1-1 1 1 2h2Zm10 1h-2v-16h2v16Zm-215 37-3 2-4-2-1-4 1-5 4-1c1 0 3 0 3 2v-7h2v16h-1l-1-1Zm-3 0 3-1v-7l-3-1-2 2-1 3 1 3 2 1Zm13 2-4-2-1-4 1-4c1-2 2-2 4-2l3 1 2 4v1h-8l1 3 2 1 4-1v2a9 9 0 0 1-4 1Zm0-11-2 1-1 3h6l-1-3-2-1Zm15 7-1 3-4 1-3-1v-2a9 9 0 0 0 3 1h2l1-2v-1l-3-1-2-1-1-1v-1l1-2 3-1 3 1v1l-3-1-2 1-1 1 1 1 2 1 3 1 1 2Zm4 3h-1v-11h1v11Zm-2-14 1-1h1v2h-1l-1-1Zm15 3v1h-2a4 4 0 0 1 1 3l-1 2-4 1-2 2h1l1 1h5l1 3-2 2-4 1h-3l-2-3 1-2 2-1h-1v-2l1-1-1-1-1-2 1-3 4-1h5Zm-9 13 1 2h2l3-1 1-1v-2h-4l-2 1-1 1Zm1-9 1 2h1c2 0 3-1 3-2 0-2-1-3-3-3l-1 1-1 2Zm18 7v-7l-1-2-2-1-2 1-1 3v6h-2v-11h2v2l2-2h2l3 1 1 3v7h-2Zm10 1-4-2-1-4 1-4c1-2 2-2 4-2l3 1 1 4v1h-8l1 3 3 1 4-1v2a9 9 0 0 1-4 1Zm0-11-3 1-1 3h6v-3l-2-1Zm12-1h1v2l-1-1-2 2-1 2v6h-2v-11h1l1 2 1-1 2-1Zm11 8-1 3-4 1-3-1v-2a9 9 0 0 0 3 1h2l1-2v-1l-3-1-2-1-1-1v-1l1-2 3-1 4 1-1 1-3-1-2 1-1 1 1 1 2 1 3 1 1 2Zm12 2a6 6 0 0 0 1 0v1h-1l-1 1c-2 0-3-2-3-4v-7h-1l1-1 1-2h1v2h3v1h-3v9h2Zm13-4-1 4-4 2-3-1-1-2-1-3 1-5 4-1 4 1 1 5Zm-8 0v3l3 1 3-1v-7l-3-1-3 1v4Zm22-5h-3v10h-2v-10h-2l2-1v-1c0-2 1-4 4-4l2 1-1 1h-3v3h3v1Zm3 10h-1v-11h1v11Zm-1-14v-1h1l1 1-1 1h-1v-1Zm13 14v-7l-1-2-2-1-2 1-1 3v6h-2v-11h1l1 2 1-2h2l3 1 1 3v7h-1Zm13-1-4 2-3-2-2-4 2-5 3-1c2 0 3 0 4 2v-7h1v16h-1v-1Zm-4 0 3-1 1-3-1-4-3-1-2 2-1 3 1 3 2 1Zm18 0a6 6 0 0 0 1 0v1l-1 1c-2 0-4-2-4-4v-7h-1l1-1 1-2h1v2h3v1h-3v7l1 2h1Zm11 1v-9l-2-1-3 1-1 3v6h-1v-16h1v7l2-2h2l3 1 1 3v7h-2Zm10 1-4-2-1-4 1-4c1-2 2-2 4-2l3 1 2 4v1h-8l1 3 2 1 4-1v2a9 9 0 0 1-4 1Zm0-11-2 1-1 3h6l-1-3-2-1Zm-189 49-2-1-1-1h-1l1 2v4h-2v-16h1v2h1a4 4 0 0 1 3-2l3 1 2 5-2 4-3 2Zm0-11-3 1v7l3 1 2-1 1-3-1-4-2-1Zm12 11-4-2-1-4 1-4c1-2 2-2 4-2l3 1 2 4v1h-8l1 3 2 1 4-1v2a9 9 0 0 1-4 1Zm0-11-2 1-1 3h6l-1-3-2-1Zm13-1h1v2l-2-1-2 2-1 2v6h-2v-11h2v2l2-1 2-1Zm8 1h-3v10h-1v-10h-2l2-1v-1c0-2 1-4 3-4l2 1v1h-3l-1 2v1h3v1Zm7 11-4-2-1-4 1-4c1-2 2-2 3-2l4 1 1 4v1h-8l1 3 3 1 4-1v2a9 9 0 0 1-4 1Zm-1-11-2 1-1 3h6v-3l-3-1Zm12 11-3-2-2-4 2-5 4-1a8 8 0 0 1 2 0v2a8 8 0 0 0-2-1c-3 0-4 2-4 5l1 3 2 1 3-1v2l-3 1Zm10-2a6 6 0 0 0 1 0v1h-1l-1 1c-2 0-3-2-3-4v-7h-2l2-1 1-2h1v2h3v1h-3v9h2Zm13 2-3-2-2-4 2-5 3-1a8 8 0 0 1 3 0v2a8 8 0 0 0-3-1c-2 0-3 2-3 5l1 3 2 1 3-1v2l-3 1Zm16-6-2 4-4 2-2-1-2-2-1-3 2-5 3-1 4 1 2 5Zm-9 0 1 3 2 1 3-1 1-3-1-4-3-1-2 1-1 4Zm13 5h-1v-16h1v16Zm14-5-2 4-4 2-2-1-2-2-1-3 2-5 3-1 4 1 2 5Zm-9 0 1 3 2 1 3-1 1-3-1-4-3-1-2 1-1 4Zm17-6h1v2l-1-1-3 2-1 2v6h-1v-11h1v2l2-1 2-1Zm10 8-1 3-3 1-4-1v-2a9 9 0 0 0 4 1h2l1-2-1-1-2-1-2-1-1-1-1-1 2-2 3-1 3 1v1l-4-1-1 1-1 1v1h1l2 1 3 1v2Zm16 3-1-1-2 1-2 1-2-1-1-3c0-2 2-3 5-3h2v-3l-2-1-3 1-1-1a8 8 0 0 1 4-1l3 1 1 3v7h-1Zm-4-1 2-1 1-2v-1h-2l-3 1v3h2Zm16 1v-7l-1-2-2-1-2 1-1 3v6h-2v-11h2v2l2-2h2l3 1 1 3v7h-2Zm13-1-4 2-3-2-1-4 1-5 3-1c2 0 3 0 4 2v-7h1v16h-1v-1Zm-4 0 3-1 1-3-1-4-3-1-2 2-1 3 1 3 2 1Zm-154 39v-9l-2-1-3 1v9h-2v-7l-1-2-1-1-3 1v9h-2v-11h1v2h1l1-2h2c2 0 3 1 3 2l2-2h2l3 1 1 3v7h-2Zm12 0v-1l-2 1-2 1-3-1v-3c0-2 1-3 5-3h2v-1l-1-2-2-1-3 1v-1a8 8 0 0 1 4-1l3 1 1 3v7h-2Zm-4-1 3-1 1-2v-1h-2l-3 1-1 1 1 2h1Zm13 0a6 6 0 0 0 1 0v1h-1l-1 1c-2 0-3-2-3-4v-7h-1l1-1 1-2h1v2h3v1h-3v9h2Zm8 2-4-2-1-4 1-4c1-2 2-2 4-2l3 1 1 4v1h-7l1 3 2 1 4-1v2a9 9 0 0 1-4 1Zm0-11-2 1-1 3h6l-1-3-2-1Zm12-1h2l-1 2-1-1-2 2-1 2v6h-2v-11h2v2l1-1 2-1Zm6 11h-2v-11h2v11Zm-2-14v-1h1l1 1-1 1h-1v-1Zm12 14v-1l-2 1-2 1-3-1-1-3c0-2 2-3 6-3h2v-1l-1-2-2-1-3 1v-1a8 8 0 0 1 3-1l3 1 1 3v7h-1Zm-4-1 3-1 1-2v-1h-2l-3 1-1 1 1 2h1Zm11 1h-2v-16h2v16Zm10-3-1 3-3 1-4-1v-2a9 9 0 0 0 4 1h2l1-2-1-1-2-1-2-1-1-1-1-1 2-2 3-1 3 1v1l-4-1-1 1-1 1v1h1l2 1 3 1v2Zm14-7h-3v10h-2v-10h-2l2-1v-1c0-2 1-4 4-4l2 1-1 1h-3v3h3v1Zm11 5-1 4-4 2-2-1-2-2-1-3 1-5 4-1 4 1 1 5Zm-8 0 1 3 2 1 3-1 1-3-1-4-3-1-2 1-1 4Zm17-6h1v2l-2-1-2 2-1 2v6h-2v-11h2v2l2-1 2-1Zm7 0h2l2 7 1 3 1-2 2-8h2l-5 13-1 3h-4v-1h1l3-2v-2l-4-11Zm22 6-2 4-3 2-3-1-2-2-1-3 2-5 4-1 3 1 2 5Zm-9 0 1 3 3 1 2-1 1-3-1-4-2-1-3 1-1 4Zm13-6v7l1 2 2 1 2-1 1-3v-6h2v11h-1l-1-1-1 1-2 1-3-1-1-4v-7h1Zm17 0h1v2l-1-1-3 2-1 2v6h-1v-11h1v2l2-1 2-1Zm18 6-1 4-4 2-3-1-1-2-1-3 1-5 4-1 4 1 1 5Zm-8 0 1 3 2 1 3-1 1-3-1-4-3-1-2 1-1 4Zm21 5-3-6v-3l-1 3-2 6h-2l-3-11h2a4293 4293 0 0 1 2 10 23 23 0 0 1 1-3l2-7h2l2 7v3h1v-2l2-8h2l-3 11h-2Zm14 0v-9l-2-1-3 1-1 3v6h-1v-11h1v2l2-2h2l3 1 1 3v7h-2Zm-216 27v7l1 2 2 1 3-1v-9h2v11h-1l-1-1-1 1-2 1-3-1-1-4v-7h1Zm19 11v-9l-2-1-3 1-1 3v6h-1v-11h1v2l2-2h2l3 1 1 3v7h-2Zm7 0h-1v-11h1v11Zm-2-14 1-1h1v2h-1l-1-1Zm10 13 3-1v-7l-3-1-2 2-1 3 1 3 2 1Zm0 2c-2 0-3-1-3-2l-2-4 2-5 3-1c1 0 3 0 3 2h1v-2h1v16h-2v-4l1-2h-1l-3 2Zm10-12v7l1 2 2 1 3-1v-9h2v11h-1l-1-1-1 1-2 1-3-1-1-4v-7h1Zm16 12-3-2-2-4 1-4c1-2 2-2 4-2l3 1 2 4v1h-8l1 3 3 1 3-1v2a9 9 0 0 1-4 1Zm0-11-2 1-1 3h6l-1-3-2-1Zm20 7-1 3-3 1-4-1v-2a9 9 0 0 0 4 1h2l1-2-1-1-2-1-2-1-1-1-1-1 1-2 3-1 4 1-1 1-3-1-2 1v2h1l2 1 2 1 1 2Zm7 2a6 6 0 0 0 1 0v1h-1l-1 1c-2 0-3-2-3-4v-7h-2l2-1 1-2h1v2h3v1h-3v9h2Zm2-10h1l3 7 1 3 1-2 2-8h2l-5 13-1 3h-4v-1h1l3-2v-2l-4-11Zm14 11h-2v-16h2v16Zm8 1-4-2-1-4 1-4c1-2 2-2 4-2l3 1 1 4v1h-8l1 3 3 1 4-1v2a9 9 0 0 1-4 1Zm0-11-3 1-1 3h6v-3l-2-1Zm7 9v-1h2v2l-1 1-1-1v-1ZM326 168a7 7 0 0 1-7-4l-1-5 1-5 3-3 4-1 3 1 2 2v-10h3v24h-2v-3l-3 3-3 1Zm0-3 4-1 1-5-1-5-4-2-4 2-1 5 1 5 4 1Zm22 3-5-1-3-3-1-5 1-5 3-3 4-1 4 1 3 3 1 4a15 15 0 0 1 0 2h-13l2 4 4 1h3l1-2 3 1-3 3-4 1Zm-1-16-3 2-2 3h10l-1-3-4-2Zm19 16-4-1-4-3 3-2 2 2 3 1h3l1-2v-1l-2-1-4-1-4-2-1-3 1-2 2-2 4-1 4 1 3 3-3 1-1-2-3-1-3 1-1 2 1 1 1 1 5 1 3 2 1 2-2 4-5 2Zm13-21h-1l-1-2 1-1 1-1 2 1v3h-2Zm2 3v17h-3v-17h3Zm15 15 4 1 1 3-1 3c-1 1-1 2-3 2l-4 1-6-2-2-3 1-2 2-1-1-1-1-2 1-2 2-2a5 5 0 0 1-3-4l1-3 2-2 4-1 4 1 1-3 3-1 1 3h-3l-1 2 2 4-1 3-3 2-3 1-3-1-1 1v1c0 2 0 2 2 2h5Zm-3-13-3 1-1 3 1 2 3 1 3-1 1-2-1-3-3-1Zm0 20h4l2-2-1-2h-10v2l1 2h4Zm12-5v-17h3v3l2-2 3-1 4 1 2 2 1 3v11h-3v-10l-1-3-3-2-2 1-2 2-1 3v9h-3Zm34-20h-1l-1-2 1-1 1-1 2 1v3h-2Zm2 3v17h-3v-17h3Zm16 0v3h-6v10l1 2h1a4 4 0 0 0 3-1l1 2-2 1-2 1-2-1-2-1-1-3v-10h-3v-3h3v-4h3v4h6Zm24 18-3-1-3-3v3h-2v-24h2v10l3-2 3-1a7 7 0 0 1 7 4l1 5-1 5-3 3-4 1Zm0-3 4-1 1-5-1-5-4-2-4 2-2 5 2 5 4 1Zm20 3-4-1-3-3-1-5 1-5 3-3 4-1 4 1 3 3v4a15 15 0 0 1 0 2h-13l2 4 4 1h3l2-2 2 1-3 3-4 1Zm0-16-4 2-1 3h10l-2-3-3-2Zm22-2v3h-6v10l1 2h2a4 4 0 0 0 3-1l1 2-2 1-3 1-2-1-2-1-1-3v-10h-3v-3h3v-4h3v4h6Zm12 0v3h-6v10l1 2h2a4 4 0 0 0 3-1l1 2-2 1-3 1-2-1-2-1-1-3v-10h-3v-3h3v-4h3v4h6Zm12 18-5-1-3-3-1-5 1-5 3-3 4-1 4 1 3 3 1 4a15 15 0 0 1 0 2h-13l2 4 3 1h3l2-2 3 1-3 3-4 1Zm-1-16-3 2-2 3h10l-1-3-4-2Zm13 15v-17h2l1 3c1-2 2-3 5-3h2l-1 3h-4l-2 2v12h-3Z"/>
    <rect width="346" height="406" x="273" y="38" stroke="#F0F2F0" stroke-width="6" rx="7"/>
  </g>
  <rect width="95.7" height="91.7" x="331" y="10" fill="#F0F2F0" rx="45.9"/>
  <path fill="#528152" d="m379 43-27 16 27 15 27-15-12-7-2 3 6 3-19 11-19-10 19-11 1 1 3-4-4-2Zm-24 23-3 1 27 15 25-14-3-2-22 12-24-12Z"/>
  <path fill="#528152" d="m400 30-1 1-19 19v1l-2 7v1h1l8-2 19-19 1-1-7-7Zm0 5 3 2-18 18-4 1 2-4 17-17Z"/>
  <rect width="95.7" height="91.7" x="331" y="10" stroke="#528152" stroke-width="7" rx="45.9"/>
  <rect width="109" height="105" x="243" y="241" stroke="#F0F2F0" stroke-width="7" rx="52.5"/>
  <g>
    <rect width="340" height="400" x="206" y="278" fill="#528152" rx="4"/>
    <path fill="#F0F2F0" d="m249 446-3 2-2 5 2 4 3 2 4-1v2h-4c-2 0-4 0-5-2l-2-6 1-4 3-2 4-1 4 1-1 1-4-1Zm12 3h2l-1 1h-1l-2 1-1 3v6h-2v-11h1l1 2 1-2h2Zm8 11-4-1-1-5 1-4 4-1 3 1 2 4v1h-8l1 3 2 1 4-1v1a9 9 0 0 1-4 1Zm0-10-2 1-1 2h6l-1-2-2-1Zm14 10v-2l-2 2h-2l-2-1-1-2c0-2 1-4 5-4h2l-1-2-1-1-4 1v-1a8 8 0 0 1 4-1h3l1 3v8h-2Zm-4-1 3-1 1-3v-1l-2 1h-3l-1 2 1 1 1 1Zm13 0a6 6 0 0 0 1 0v1h-2c-2 0-3-1-3-3v-7h-1v-1h1l1-3h1v3h3v1h-3v8l2 1Zm8 1-4-1-1-5 1-4 4-1 3 1 1 4v1h-7l1 3 2 1 4-1v1a9 9 0 0 1-4 1Zm0-10-2 1-1 2h6l-1-2-2-1Zm17 10-4-1-1-5 2-4 3-1a8 8 0 0 1 3 0v2a8 8 0 0 0-3-1c-2 0-3 2-3 4l1 4 2 1 3-1v2h-3Zm7-11v7l1 2 2 1 3-1v-9h2v11h-1l-1-2-1 2h-2l-3-1-1-3v-7h1Zm19 8-1 2-4 1-3-1v-1a8 8 0 0 0 4 1l2-1v-2l-2-1-3-1-1-1v-1l1-3h7l-1 2-3-1h-2v2l1 1 2 1 2 1 1 2Zm6 2a6 6 0 0 0 2 0v1h-2c-2 0-3-1-3-3v-7h-2v-1h2l1-3h1v3h3v1h-3v8l1 1Zm14-5-2 5-3 1-3-1-2-2v-3l1-4 4-1 3 1 2 4Zm-9 0 1 4 3 1 2-1 1-4-1-3-2-1-3 1-1 3Zm26 6v-9l-2-1-3 1v9h-2v-7l-1-2-1-1-3 1v9h-2v-11h1v1h1l1-1h2l3 1 2-1h2l3 1 1 3v7h-2Zm16-10h-3v10h-2v-10h-2v-1h2v-1c0-3 2-4 4-4h2v2l-2-1-2 1v3h3v1Zm4 10h-2v-16h2v16Zm13-6-1 5-4 1-3-1-2-2v-3l1-4 4-1 4 1 1 4Zm-9 0 1 4 3 1 2-1 1-4-1-3-2-1-3 1-1 3Zm22 0-2 5-4 1-2-1-2-2-1-3 2-4 4-1 3 1 2 4Zm-9 0 1 4 2 1 3-1 1-4-1-3-3-1-2 1-1 3Zm17-5h1v1h-1l-3 1-1 3v6h-1v-11h1v2l2-2h2Zm14 11h-2l-2-1v6h-1v-16h1v1a4 4 0 0 1 4-1l3 1 2 4-2 5-3 1Zm0-10-3 1-1 3 1 4 3 1 2-1 1-4-1-3-2-1Zm9 10h-1v-16h1v16Zm11 0-1-2-1 2h-2l-3-1-1-2c0-2 2-4 5-4h2v-2l-2-1-3 1-1-1a8 8 0 0 1 4-1h3l1 3v8h-1Zm-4-1 2-1 1-3v-1l-1 1h-3l-1 2v1l2 1Zm16 1v-9l-2-1-3 1-1 3v6h-1v-11h1v1l2-1h2l3 1 1 3v7h-2Zm13-3-1 2-4 1-3-1v-1a8 8 0 0 0 3 1l2-1 1-1-1-1-2-1-2-1-1-1v-1l1-3h6v2l-3-1h-2l-1 1 1 1v1l2 1 3 1 1 2Zm-247 40a6 6 0 0 0 2 0v1h-2c-2 0-3-1-3-3v-7h-2v-1h2l1-3h1v3h3v1h-3v8l1 1Zm14-5-1 5-4 1-3-1-2-2v-3l1-4 4-1 4 1 1 4Zm-9 0 1 4 3 1 2-1 1-4-1-3-2-1-3 1-1 3Zm32 6v-7l-1-2-2-1-2 1-1 3v6h-1v-7l-1-2-2-1-2 1-1 3v6h-2v-11h2v1l1-1h2l4 1 1-1h3l2 1 1 3v7h-1Zm12 0-1-2-1 2h-2l-3-1-1-2c0-2 2-4 6-4h1v-2l-2-1-3 1-1-1a8 8 0 0 1 4-1h3l1 3v8h-1Zm-4-1 2-1 1-3v-1l-1 1h-3l-1 2v1l2 1Zm10-5 2-1 3-4h2l-4 5 5 6h-2l-4-5-2 1v4h-1v-16h1v10Zm14 6-4-1-1-5 1-4 4-1 3 1 2 4v1h-8l1 3 2 1 4-1v1a9 9 0 0 1-4 1Zm0-10-2 1-1 2h6l-1-2-2-1Zm18 0h-3v10h-2v-10h-2v-1h2v-1c0-3 2-4 4-4h2v2l-2-1-1 1-1 2v1h3v1Zm4-1v9l2 1 3-1 1-3v-6h1v11h-1v-2l-2 2h-2l-3-1-1-3v-7h2Zm19 11v-7l-1-2-2-1-3 1v9h-2v-11h1l1 1 1-1h2l3 1 1 3v7h-1Zm9 0-3-1-2-5 2-4 3-1a8 8 0 0 1 3 0v2a8 8 0 0 0-3-1c-2 0-3 2-3 4l1 4 2 1 3-1v2h-3Zm9-1a6 6 0 0 0 2 0v1h-2c-2 0-3-1-3-3v-7h-2v-1h2l1-3h1v3h3v1h-3v8l1 1Zm6 1h-2v-11h2v11Zm-2-14v-1h2v2h-2v-1Zm15 8-1 5-4 1-3-1-1-2-1-3 1-4 4-1 4 1 1 4Zm-8 0 1 4 2 1 3-1v-7l-3-1-2 1-1 3Zm19 6v-7l-1-2-2-1-2 1-1 3v6h-2v-11h2v1l1-1h3l3 1 1 3v7h-2Zm12 0v-2l-2 2h-2l-3-1-1-2c0-2 2-4 6-4h2l-1-2-2-1-3 1v-1a8 8 0 0 1 3-1h3l1 3v8h-1Zm-4-1 3-1 1-3v-1l-2 1h-3l-1 2 1 1 1 1Zm11 1h-2v-16h2v16Zm5-2a25 25 0 0 1-2 5h-1a59 59 0 0 0 1-5h2Zm-183 40h-2v-16h2v16Zm5 0h-2v-11h2v11Zm-2-14v-1h2v2h-2v-1Zm8 14-4-11h1l3 6 1 3 1-2 2-7h2l-4 11h-2Zm15 0v-2h-1l-1 2h-2l-3-1-1-2c0-2 2-4 6-4h1v-2l-2-1-3 1-1-1a8 8 0 0 1 4-1h3l1 3v8h-1Zm-4-1 3-1v-4l-1 1h-3l-1 2v1l2 1Zm14-10 3 1 2 4-2 5-3 1h-2l-2-1v1h-1v-16h1v6l4-1Zm0 1-3 1-1 3 1 4 3 1 2-1 1-4-1-3-2-1Zm9 10h-1v-16h1v16Zm9 0-4-1-2-5 2-4 3-1 3 1 2 4v1h-8l1 3 3 1 3-1v1a9 9 0 0 1-3 1Zm-1-10-2 1-1 2h6l-1-2-2-1Zm9 8h1a25 25 0 0 1-2 5h-2a56 56 0 0 0 2-5h1Zm16-1-1 2-3 1-3-1v-1a8 8 0 0 0 3 1l2-1 1-1-1-1-2-1-2-1-1-1v-1l1-3h6v2l-3-1h-2l-1 1v1l1 1 2 1 3 1v2Zm8 3h-2l-1-1v6h-2v-16h2v1a4 4 0 0 1 3-1l4 1 1 4-1 5-4 1Zm0-10-2 1-1 3 1 4 2 1 3-1v-7l-3-1Zm15 10v-2l-2 2h-2l-3-1-1-2c0-2 2-4 6-4h2l-1-2-2-1-3 1v-1a8 8 0 0 1 3-1h3l1 3v8h-1Zm-4-1 3-1 1-3v-1l-2 1h-3l-1 2 1 1 1 1Zm13 1-3-1-2-5 2-4 3-1a8 8 0 0 1 3 0v2a8 8 0 0 0-3-1c-2 0-3 2-3 4l1 4 2 1 3-1v2h-3Zm11 0-4-1-2-5 2-4 3-1 3 1 2 4v1h-8l1 3 3 1 3-1v1a9 9 0 0 1-3 1Zm-1-10-2 1-1 2h6l-1-2-2-1Zm15 7-1 2-4 1-3-1v-1a8 8 0 0 0 3 1l3-1v-2l-3-1-2-1-1-1v-1l1-3h7l-1 2-3-1h-2v3l2 1 3 1 1 2Zm12 2a6 6 0 0 0 1 0v1h-2c-2 0-3-1-3-3v-7h-1v-1h1l1-3h1v3h3v1h-3v8l2 1Zm10 1v-2l-2 2h-2l-2-1-1-2c0-2 2-4 5-4h2l-1-2-1-1-4 1v-1a8 8 0 0 1 4-1h3l1 3v8h-2Zm-3-1 2-1 1-3v-1l-2 1h-3l-1 2 1 1 2 1Zm6-10h2l3 6 1 3v-1l3-8h2l-5 13-2 2-2 1h-1v-1h1l2-2 1-2-5-11Zm15 11h-2v-16h2v16Zm13-6-2 5-3 1-3-1-2-2-1-3 2-4 4-1 3 1 2 4Zm-9 0 1 4 3 1 2-1 1-4-1-3-2-1-3 1-1 3Zm17-5h1v1h-1l-3 1v9h-2v-11h1v2l2-2h2Zm8 11-4-1-1-5 1-4 4-1 3 1 1 4v1h-7l1 3 2 1 4-1v1a9 9 0 0 1-4 1Zm0-10-3 1v2h5v-2l-2-1Zm15 8c-1 2-2 2-4 2l-3-1-1-5 1-4 3-1 4 1v-6h1v16h-1v-2Zm-4 1 3-1 1-3v-1l-1-3-3-1-2 1-1 3 1 4 2 1Zm18 0a6 6 0 0 0 2 0v1h-2c-2 0-3-1-3-3v-7h-2v-1h2v-3h1v3h4v1h-4v7l1 1 1 1Zm14-5-2 5-4 1-2-1-2-2-1-3 2-4 3-1 4 1 2 4Zm-9 0 1 4 2 1 3-1 1-4-1-3-3-1-2 1-1 3Zm-242 33h2l2 6 1 3 1-1 3-8h2l-5 13-2 2-2 1h-2v-1h1c2 0 2-1 3-2l1-2-5-11Zm22 5-1 5-4 1-3-1-2-2v-3l1-4 4-1 4 1 1 4Zm-8 0v4l3 1 2-1 1-4-1-3-2-1-3 1v3Zm13-5v9l2 1 3-1 1-3v-6h1v11h-1v-2l-2 2h-2l-3-1-1-3v-7h2Zm16 0h1v1h-1l-2 1-1 3v6h-2v-11h1l1 2 1-2h2Zm14 11h-2l-1-1v6h-2v-16h1l1 1a4 4 0 0 1 3-1l4 1 1 4-1 5-4 1Zm0-10-2 1-1 3 1 4 2 1 2-1 1-4-1-3-2-1Zm13-1h1v1h-1l-2 1-1 3v6h-2v-11h1v2h1l1-2h2Zm13 5-1 5-4 1-3-1-2-2v-3l1-4 4-1 4 1 1 4Zm-8 0v4l3 1 3-1v-7l-3-1-3 1v3Zm10 11h-2v-2l2 1 1-1v-14h2v13c0 2-1 3-3 3Zm1-19v-1h2v2h-2v-1Zm10 14-4-1-1-5 1-4 4-1 3 1 1 4v1h-7l1 3 2 1 4-1v1a9 9 0 0 1-4 1Zm0-10-2 1-1 2h6l-1-2-2-1Zm12 10-4-1-1-5 1-4 4-1a8 8 0 0 1 3 0l-1 2a8 8 0 0 0-2-1c-2 0-4 2-4 4l1 4 3 1 3-1v2h-3Zm9-1a6 6 0 0 0 1 0v1h-1c-3 0-4-1-4-3v-7h-1v-1h1l1-3h1v3h3v1h-3v7l1 1 1 1Zm18-10v1h-2a4 4 0 0 1 1 2l-1 3-3 1h-1l-1 1v1h3l3 1 1 2-1 3-5 1-3-1-1-2v-2l2-1-1-1 1-2h1l-2-2v-2l1-2 3-1h5Zm-9 13 1 1 2 1 4-1 1-2-1-1h-6l-1 2Zm1-10 1 2 2 1c1 0 2-1 2-3l-2-2h-2l-1 2Zm20 2-1 5-4 1-3-1-1-2-1-3 1-4 4-1 4 1 1 4Zm-8 0 1 4 2 1 3-1 1-4-1-3-3-1-2 1-1 3Zm18 6v-2l-2 2h-2l-3-1v-2c0-2 1-4 5-4h2l-1-2-2-1-3 1v-1a8 8 0 0 1 4-1h3l1 3v8h-2Zm-4-1 3-1 1-3v-1l-2 1h-3l-1 2 1 1 1 1Zm11 1h-2v-16h2v16Zm11-3-2 2-3 1-3-1v-1a8 8 0 0 0 3 1l2-1 1-1-1-1-2-1-2-1-1-1v-1l1-3h6v2l-3-1h-2l-1 1v1l1 1 2 1 3 1 1 2Zm2 2v-1h2l1 1-1 1h-2v-1ZM244 411v-24h3v3l2-2 4-1 3 1c2 0 3 1 3 3l1 5-1 4c-1 2-1 3-3 3a7 7 0 0 1-7 1l-2-3v10h-3Zm8-9 4-2 2-4-2-5-4-2-4 2-1 5 1 4 4 2Zm16-23v21l1 1 1 1a5 5 0 0 0 2-1v3h-3c-2 0-4-1-4-4v-21h3Zm18 14-1-3-3-1-3 1-2 2-2-1 2-3 5-1h3l3 2 1 3v9l1 1h1v2h-4l-1-2-3 2a8 8 0 0 1-5 0l-2-2-1-2 1-3 4-2 6-1v-1Zm-8 7v1l3 1h2l2-2 1-2v-2l-5 1-3 1v2Zm17 4v-17h3v3l2-3h7l2 2 1 4v11h-3v-10l-1-4-3-1-2 1-2 1-1 4v9h-3Zm40-17 4 1 3 3-3 1-1-2-3-1-4 2c-1 1-2 2-2 5l2 4 4 2 3-1 1-3 3 1-3 4-4 1-4-1c-2 0-3-1-3-3l-1-4 1-5c0-2 1-3 3-3l4-1Zm19 0 4 1 3 3 1 5-1 4-3 3-4 1-4-1c-2 0-3-1-3-3l-1-4 1-5c0-2 1-3 3-3l4-1Zm0 2-4 2c-1 1-2 2-2 5l2 4 4 2 4-2 1-4-1-5-4-2Zm13 15v-17h3v3l2-3h7l2 2 1 4v11h-3v-10l-1-4-3-1-2 1-2 1-1 4v9h-3Zm31-17v2h-6v15h-3v-15h-3v-2h3v-3l2-4 4-1h2l1 1-1 2-2-1-2 1-1 2v3h6Zm5-3-2-1v-3h3l1 2-1 1-1 1Zm1 3v17h-3v-17h3Zm13 17a7 7 0 0 1-7-4l-1-4 1-5 3-3 4-1 4 1 2 2v-11h2v25h-2v-3l-2 2-4 1Zm0-2 4-2 2-5-2-4-4-2-4 2-1 5 1 4 4 2Zm22 2-4-1c-2 0-3-1-3-3l-1-4 1-5c0-2 1-3 2-3l5-1 4 1 2 2 1 4a15 15 0 0 1 0 2h-13l2 4 4 2 3-1 2-2 2 2-3 2-4 1Zm0-15-4 1-2 4h10l-1-4-3-1Zm12 15v-17h3v3l2-3h7l2 2 1 4v11h-2v-10l-2-4-3-1-2 1-2 1-1 4v9h-3Zm31-17v2h-6v10l1 2 2 1a4 4 0 0 0 3-1l1 2-2 1h-5l-2-2-1-2v-11h-3v-2h3v-4l3-1v5h6Zm7-8v22l2 1a5 5 0 0 0 2-1v3h-3c-2 0-4-1-4-4v-21h3Zm21 8-8 20-2 3-3 1a7 7 0 0 1-4-1l1-2 1 1h2l1-1 2-2v-2l-1-4-6-13h3l5 11 1 3 1-3 4-11h3Z"/>
    <rect width="346" height="406" x="203" y="275" stroke="#F0F2F0" stroke-width="6" rx="7"/>
  </g>
  <rect width="94.7" height="94.7" x="250" y="245" fill="#F0F2F0" rx="47.4"/>
  <path fill="#528152" d="M292 272v15h-4v-15h-11v23h11v-3h4v16h-4v-9h-11v15h20v-7h4v7h18v-6h5v10h-52v-52h52v36h-5v-15h-18v15h-4v-19h22v-11h-27Z"/>
  <rect width="94.7" height="94.7" x="250" y="245" stroke="#528152" stroke-width="7" rx="47.4"/>
</svg>
