<svg width="237" height="167" viewBox="0 0 237 167" fill="none" xmlns="http://www.w3.org/2000/svg">
<g clip-path="url(#clip0_1_10)">
<path d="M137.998 91.7742L112.155 73.3754C111.891 73.1859 111.579 73.0734 111.255 73.0504C110.931 73.0274 110.606 73.0948 110.318 73.2452C109.725 73.5504 109.361 74.2168 109.359 74.8874L109.372 83.5968H86.1234C85.135 83.5968 84.176 84.2926 84.176 85.2824V101.301C84.176 102.291 85.135 102.973 86.1234 102.973H109.607V111.751C109.607 112.42 109.865 113.035 110.46 113.341C111.055 113.648 111.654 113.596 112.198 113.205L138.003 94.6862C138.472 94.3516 138.671 93.8098 138.671 93.233V93.2302C138.671 92.6506 138.469 92.1102 137.998 91.7742Z" fill="#699BF7"/>
<path d="M95.684 109.974H86.598C85.9556 109.974 85.3396 110.229 84.8854 110.684C84.4312 111.138 84.176 111.754 84.176 112.396H84.1662V116.61H27.2674V50.624H52.0796C52.722 50.624 53.338 50.3688 53.7922 49.9146C54.2464 49.4604 54.5016 48.8444 54.5016 48.202V23.3898H84.1648V74.2882H84.1802C84.1937 74.9203 84.4542 75.522 84.9058 75.9645C85.3574 76.4069 85.9643 76.655 86.5966 76.6556H95.6826C97.0028 76.6556 98.0696 75.6 98.099 74.2882H98.1046V17.5H98.0976V11.872C98.0976 11.2296 97.8424 10.6136 97.3882 10.1594C96.934 9.70517 96.318 9.45 95.6756 9.45H49.6576L13.329 45.78V128.127C13.329 129.465 14.4126 130.549 15.751 130.549H95.6756C96.318 130.549 96.934 130.293 97.3882 129.839C97.8424 129.385 98.0976 128.769 98.0976 128.127V124.699H98.1046V112.393C98.1042 111.752 97.849 111.136 97.3951 110.683C96.9412 110.229 96.3257 109.974 95.684 109.974Z" fill="#699BF7"/>
<path d="M42.652 89.8422C43.8154 89.8422 44.822 90.7144 45.1524 91.721L48.5236 90.1516C47.7494 88.3694 46.0442 86.3926 42.6534 86.3926C38.6032 86.3926 35.5428 89.0862 35.5428 93.0776C35.5428 97.0494 38.6046 99.7612 42.6534 99.7612C46.0442 99.7612 47.769 97.7074 48.5236 95.9826L45.1524 94.4328C44.8234 95.4394 43.8154 96.3116 42.652 96.3116C40.7732 96.3116 39.5132 94.878 39.5132 93.0762C39.5132 91.2744 40.7718 89.8422 42.652 89.8422ZM55.9184 96.4698C54.3669 96.4716 52.8745 95.8748 51.752 94.8038L49.7178 97.7102C51.0926 98.9506 52.9728 99.764 55.7252 99.764C59.193 99.764 61.3056 98.1176 61.3056 95.2686C61.3056 90.4638 54.1166 91.5096 54.1166 90.2888C54.1166 89.9598 54.3294 89.7078 55.105 89.7078C56.3258 89.7078 57.779 90.1334 58.9018 90.986L60.9948 88.2154C59.522 87.0142 57.6236 86.4136 55.511 86.4136C51.9648 86.4136 50.1448 88.5066 50.1448 90.6962C50.1448 95.7922 57.352 94.5322 57.352 95.7726C57.352 96.2752 56.6548 96.4698 55.9184 96.4698ZM66.5794 86.6068H62.1428L66.9084 99.5302H71.8308L76.5964 86.6068H72.1598L69.3696 95.3064L66.5794 86.6068Z" fill="#699BF7"/>
<rect x="150" y="50" width="88" height="86" fill="white"/>
<path d="M161.151 90.3588C171.698 94.0388 182.823 95.8103 194 95.5892C205.177 95.8089 216.303 94.0359 226.849 90.3544C235.081 87.1671 238 83.6246 238 81.586V66C235.122 67.9134 232.034 69.496 228.796 70.7174C217.638 74.6839 205.85 76.6176 194 76.4257C182.151 76.614 170.364 74.6834 159.204 70.7262C155.964 69.5047 152.876 67.9189 150 66V81.564C150 83.6422 152.928 87.1671 161.151 90.3588ZM161.151 119.755C164.877 121.166 168.719 122.253 172.634 123.004C179.674 124.356 186.83 125.021 194 124.99C201.17 125.022 208.326 124.359 215.366 123.008C219.281 122.257 223.123 121.17 226.849 119.76C235.081 116.572 238 113.03 238 110.991V96.1285C235.621 97.5496 233.121 98.7599 230.528 99.7455C218.806 103.866 206.433 105.86 194 105.634C181.566 105.853 169.193 103.851 157.472 99.7236C154.881 98.7355 152.38 97.5253 150 96.1066V110.982C150 113.025 152.928 116.555 161.151 119.755ZM194 155C218.29 155 238 147.354 238 137.928V125.49C235.836 126.785 233.569 127.902 231.221 128.83L230.528 129.107C218.808 133.239 206.435 135.245 194 135.03C181.564 135.252 169.191 133.245 157.472 129.107C157.234 129.019 157.004 128.918 156.779 128.83C154.431 127.902 152.164 126.785 150 125.49V137.928C150 147.354 169.71 155 194 155Z" fill="#FFDA44"/>
<path d="M194 67C218.301 67 238 59.3888 238 50C238 40.6112 218.301 33 194 33C169.699 33 150 40.6112 150 50C150 59.3888 169.699 67 194 67Z" fill="#FFDA44"/>
</g>
<defs>
<clipPath id="clip0_1_10">
<rect width="237" height="167" fill="white"/>
</clipPath>
</defs>
</svg>
