<svg width="240" height="233" viewBox="0 0 240 233" fill="none" xmlns="http://www.w3.org/2000/svg">
<g clip-path="url(#clip0_23_4)">
<path d="M4.31786 92.395C6.55186 95.003 50.4148 109.613 65.6648 127.365C80.9148 145.119 87.5719 160.963 85.4189 176.197C83.2689 191.431 73.9489 191.179 69.8789 196.727C65.8089 202.274 60.1888 209.115 49.3888 208.387C35.2488 207.439 20.6688 200.373 10.1388 175.847C-0.391154 151.32 0.418841 128.28 1.25884 115.497C2.09884 102.717 4.29888 92.395 4.29888 92.395H4.31786Z" fill="url(#paint0_linear_23_4)"/>
<path d="M1.68408 100.602L67.3741 198.529L64.3461 201.909" fill="url(#paint1_linear_23_4)"/>
<path fill-rule="evenodd" clip-rule="evenodd" d="M13.3989 225.641C35.1189 215.921 72.0289 194.931 78.5289 189.431C85.6689 183.391 95.189 183.581 104.529 181.431C121.349 177.561 139.299 173.621 153.859 165.141C162.859 171.391 181.699 174.501 191.769 172.321C202.279 170.041 218.589 152.591 227.319 146.421C230.749 144.001 235.769 139.291 239.459 141.961C236.979 143.661 239.899 148.641 236.859 147.781C235.269 144.741 232.099 148.251 229.789 147.661C220.999 154.871 211.869 161.621 202.909 168.601C198.729 171.171 206.939 173.831 202.039 174.671C178.899 179.271 143.659 167.751 129.071 183.741C105.956 191.651 84.0909 193.661 61.3109 205.941C48.2209 213.001 32.203 225.841 18.577 232.591C18.5768 234 13.3991 227 13.3989 225.641Z" fill="#3C3C3B"/>
<path d="M169.46 0C166.41 4.944 96.86 40.807 75.985 74.472C55.112 108.137 49.157 134.644 56.725 159.562C64.291 184.476 78.755 183.354 87 191.57C95.246 199.79 106.432 209.763 124.3 205.736C147.695 200.461 170.24 184.846 181.455 141.086C192.669 97.324 185.315 59.003 180.575 37.844C175.838 16.687 169.462 0 169.462 0H169.46Z" fill="url(#paint2_linear_23_4)"/>
<path d="M168.277 7.39001L83.939 188.283L88.8889 193.253" fill="url(#paint3_linear_23_4)"/>
</g>
<defs>
<linearGradient id="paint0_linear_23_4" x1="3.25134" y1="154.568" x2="96.0435" y2="170.263" gradientUnits="userSpaceOnUse">
<stop stop-color="#89C442"/>
<stop offset="1" stop-color="#74B844"/>
</linearGradient>
<linearGradient id="paint1_linear_23_4" x1="-2.8082" y1="144.388" x2="77.2617" y2="157.931" gradientUnits="userSpaceOnUse">
<stop stop-color="#74B844"/>
<stop offset="1" stop-color="#4A9634"/>
</linearGradient>
<linearGradient id="paint2_linear_23_4" x1="-794.912" y1="-2877.67" x2="-944.464" y2="-2827.51" gradientUnits="userSpaceOnUse">
<stop stop-color="#C1EA71"/>
<stop offset="1" stop-color="#ACDA55"/>
</linearGradient>
<linearGradient id="paint3_linear_23_4" x1="-795.627" y1="-2868.39" x2="-925.94" y2="-2824.68" gradientUnits="userSpaceOnUse">
<stop stop-color="#ACDA55"/>
<stop offset="1" stop-color="#89C442"/>
</linearGradient>
<clipPath id="clip0_23_4">
<rect width="240" height="233" fill="white"/>
</clipPath>
</defs>
</svg>
